<svg xmlns:dc="http://purl.org/dc/elements/1.1/" xmlns:cc="http://creativecommons.org/ns#" xmlns:rdf="http://www.w3.org/1999/02/22-rdf-syntax-ns#" xmlns:svg="http://www.w3.org/2000/svg" xmlns="http://www.w3.org/2000/svg" xmlns:sodipodi="http://sodipodi.sourceforge.net/DTD/sodipodi-0.dtd" xmlns:inkscape="http://www.inkscape.org/namespaces/inkscape" sodipodi:docname="NewLogoAvanteam.svg" 
     style="shape-rendering: geometricPrecision; text-rendering: geometricPrecision; fill-rule: evenodd; clip-rule: evenodd;" 
     version="1.1" width="206" height="86" viewBox="0 0 4534 1906" xml:space="preserve" inkscape:version="0.92.1 r15371">
  <rect id="backgroundrect" width="100%" height="100%" x="0" y="0" fill="none" stroke="none"/>
  <metadata id="metadata3711">
    <rdf:RDF>
      <cc:Work rdf:about="">
        <dc:format>image/svg+xml</dc:format>
        <dc:type rdf:resource="http://purl.org/dc/dcmitype/StillImage"/><dc:title/>
      </cc:Work>
    </rdf:RDF>
  </metadata>
  <sodipodi:namedview inkscape:current-layer="svg3707" inkscape:window-maximized="1" inkscape:window-y="-8" inkscape:window-x="-8" inkscape:cy="540.91219" inkscape:cx="325.37329" inkscape:zoom="2.2375075" showgrid="false" id="namedview3709" inkscape:window-height="1057" inkscape:window-width="1920" inkscape:pageshadow="2" inkscape:pageopacity="0" guidetolerance="10" gridtolerance="10" objecttolerance="10" borderopacity="1" bordercolor="#666666" pagecolor="#ffffff"/>
  <defs id="defs3682">
    <style type="text/css" id="style3680"><![CDATA[
    .fil1 {fill:#000081;fill-rule:nonzero}
    .fil0 {fill:red;fill-rule:nonzero}
   ]]></style>
  </defs>
  <g class="currentLayer">
    <title>Layer 1</title>
    <g id="Calque_x0020_1" style="fill:#142d41;fill-opacity:1" class="">
      <metadata id="CorelCorpID_0Corel-Layer" transform="translate(-1873,-4356) "/>
      <path class="fil0" d="M2593,0 c-198,137 -653,630 -410,949 c243,320 878,10 1068,-200 c-129,86 -617,320 -849,69 c-243,-262 57,-637 191,-818 z" id="path3685" style="fill:#e61e50;fill-opacity:1"/>
      <path class="fil0" d="M2569,591 c124,0 167,91 167,134 c0,43 -19,124 -138,124 c-119,0 -172,-81 -172,-138 c0,-38 29,-119 143,-119 z" id="path3687" style="fill:#e61e50;fill-opacity:1"/>
      <g id="_166721600" style="fill:#143c5a;fill-opacity:1">
        <path class="fil1" d="M49,1571 c10,-42 34,-75 71,-98 c37,-23 94,-34 171,-34 c88,0 147,11 178,33 c31,22 46,54 46,96 c0,28 -8,74 -23,138 c-14,61 -21,103 -21,127 c0,20 4,41 11,62 l-167,0 c-4,-18 -6,-35 -6,-51 c-45,41 -95,61 -150,61 c-56,0 -97,-13 -122,-40 c-25,-26 -37,-57 -37,-92 c0,-40 11,-70 33,-90 c22,-21 49,-35 81,-42 c32,-7 76,-14 132,-20 c50,-5 83,-11 99,-16 c3,-13 5,-23 5,-30 c0,-11 -6,-20 -17,-27 c-11,-7 -26,-10 -45,-10 c-20,0 -36,3 -48,9 c-12,6 -23,20 -32,40 l-159,-17 zm278,124 l0,0 c-79,13 -125,25 -139,35 c-14,10 -21,22 -21,36 c0,14 5,26 15,34 c10,8 22,12 38,12 c22,0 43,-9 64,-26 c21,-18 35,-48 43,-91 z" id="path3689" style="fill:#143c5a;fill-opacity:1"/>
        <polygon class="fil1" points="1091,1449 812,1895 661,1895 575,1449 737,1449 762,1732 764,1732 912,1449 " id="polygon3691" style="fill:#143c5a;fill-opacity:1"/><path class="fil1" d="M1098,1571 c10,-42 34,-75 71,-98 c37,-23 94,-34 171,-34 c88,0 147,11 178,33 c31,22 46,54 46,96 c0,28 -8,74 -23,138 c-14,61 -21,103 -21,127 c0,20 4,41 11,62 l-167,0 c-4,-18 -6,-35 -6,-51 c-45,41 -95,61 -150,61 c-56,0 -97,-13 -122,-40 c-25,-26 -37,-57 -37,-92 c0,-40 11,-70 33,-90 c22,-21 49,-35 81,-42 c32,-7 76,-14 132,-20 c50,-5 83,-11 99,-16 c3,-13 5,-23 5,-30 c0,-11 -6,-20 -17,-27 c-11,-7 -26,-10 -45,-10 c-20,0 -36,3 -48,9 c-12,6 -23,20 -32,40 l-159,-17 zm278,124 l0,0 c-79,13 -125,25 -139,35 c-14,10 -21,22 -21,36 c0,14 5,26 15,34 c10,8 22,12 38,12 c22,0 43,-9 64,-26 c21,-18 35,-48 43,-91 z" id="path3693" style="fill:#143c5a;fill-opacity:1"/>
        <path class="fil1" d="M1850,1518 c47,-53 105,-79 172,-79 c40,0 71,10 91,31 c20,21 30,46 30,76 c0,18 -6,53 -17,106 l-52,243 l-172,0 l44,-207 c11,-51 16,-80 16,-87 c0,-25 -11,-37 -34,-37 c-25,0 -47,12 -66,36 c-19,24 -33,58 -42,102 l-42,193 l-172,0 l96,-446 l160,0 l-15,67 l2,2 z" id="path3695" style="fill:#143c5a;fill-opacity:1"/>
        <path class="fil1" d="M2563,1450 l-26,122 l-90,0 l-33,158 c-2,7 -3,14 -3,21 c0,20 13,30 40,30 c8,0 26,-3 53,-8 l-26,122 c-52,7 -89,11 -114,11 c-48,0 -82,-11 -102,-34 c-20,-23 -30,-48 -30,-75 c0,-9 4,-33 12,-72 l32,-153 l-61,0 l25,-122 l63,0 l15,-70 l191,-95 l-35,165 l89,0 z" id="path3697" style="fill:#143c5a;fill-opacity:1"/>
        <path class="fil1" d="M3082,1781 c-25,44 -58,76 -98,96 c-40,19 -91,29 -151,29 c-88,0 -151,-20 -188,-59 c-37,-40 -56,-88 -56,-146 c0,-40 9,-77 26,-112 c17,-35 41,-65 71,-89 c30,-24 59,-40 88,-48 c29,-8 63,-12 101,-12 c83,0 143,18 179,54 c36,36 54,81 54,133 c0,17 -4,47 -11,90 l-340,0 c5,60 32,90 80,90 c33,0 59,-13 79,-40 l165,16 zm-143,-148 l0,0 c2,-6 3,-15 3,-26 c0,-23 -7,-40 -20,-52 c-14,-12 -30,-17 -50,-17 c-21,0 -40,8 -58,24 c-18,16 -31,39 -40,71 l166,0 z" id="path3699" style="fill:#143c5a;fill-opacity:1"/>
        <path class="fil1" d="M3203,1571 c10,-42 34,-75 71,-98 c37,-23 94,-34 171,-34 c88,0 147,11 178,33 c31,22 46,54 46,96 c0,28 -8,74 -23,138 c-14,61 -21,103 -21,127 c0,20 4,41 11,62 l-167,0 c-4,-18 -6,-35 -6,-51 c-45,41 -95,61 -150,61 c-56,0 -97,-13 -122,-40 c-25,-26 -37,-57 -37,-92 c0,-40 11,-70 33,-90 c22,-21 49,-35 81,-42 c32,-7 76,-14 132,-20 c50,-5 83,-11 99,-16 c3,-13 5,-23 5,-30 c0,-11 -6,-20 -17,-27 c-11,-7 -26,-10 -45,-10 c-20,0 -36,3 -48,9 c-12,6 -23,20 -32,40 l-159,-17 zm278,124 l0,0 c-79,13 -125,25 -139,35 c-14,10 -21,22 -21,36 c0,14 5,26 15,34 c10,8 22,12 38,12 c22,0 43,-9 64,-26 c21,-18 35,-48 43,-91 z" id="path3701" style="fill:#143c5a;fill-opacity:1"/>
        <path class="fil1" d="M4240,1515 c32,-29 62,-49 88,-60 c27,-11 55,-16 85,-16 c40,0 71,11 91,32 c20,21 30,47 30,78 c0,18 -2,36 -5,53 l-63,293 l-172,0 l41,-190 c10,-48 16,-77 17,-87 c1,-9 2,-16 2,-19 c0,-23 -11,-35 -33,-35 c-26,0 -47,11 -63,32 c-17,21 -30,55 -40,101 l-42,198 l-172,0 l40,-187 c11,-50 17,-80 18,-89 c1,-9 2,-16 2,-21 c0,-23 -12,-34 -34,-34 c-17,0 -36,9 -55,27 c-19,18 -33,48 -43,91 l-46,214 l-172,0 l96,-446 l159,0 l-14,64 l2,2 c49,-50 104,-76 165,-76 c28,0 53,7 74,20 c22,13 36,32 45,56 z" id="path3703" style="fill:#143c5a;fill-opacity:1"/>
      </g>
    </g>
    <path style="stroke-width:1.26409721;fill:#000080" d="m68.50712564921992,1877.5403561314406 c-41.225352692499996,-23.642674662780003 -58.383953878730004,-52.85824615018 -58.837823396560005,-100.18203427585 c-0.9094057587000002,-94.77976822244999 45.685086866780004,-125.89457061393 222.47794150604,-148.56742080781 c119.22674092222,-15.29020465839 120.81960729751,-15.97022765871 116.88228662607999,-49.901271136839995 c-3.4301160163200013,-29.55964562497 -11.121626165159999,-34.98576665188 -54.664036393829996,-38.563804338 c-33.94718985758,-2.7895735180099996 -58.85886577494,3.2449014185000005 -75.47578197317,18.283014217090003 c-19.355237982760002,17.51632161869 -38.36733935966,20.58788384103 -86.55240661625,13.983389624840003 c-74.68679695411,-10.23701291168 -76.54665152637,-11.791336316670002 -57.25058221153,-47.84630579871 c25.10136983335,-46.90241970712 113.13111808418,-78.49765501488 217.27849481257,-77.98461682913 c114.39584836096999,0.5635607279 177.60892390772003,21.422495403310002 203.12822454334997,67.02820458531001 c17.56371905514,31.388249140230002 17.259646270530002,47.678800133189995 -2.8477004840300006,152.56932699704 c-12.38093959207,64.58603865095 -22.510865548429997,142.10188962508 -22.510865548429997,172.25759707722997 v54.82862529403 h-73.65749130671999 c-61.91303157555,0 -74.72638162631,-4.087638255600001 -80.36157222455,-25.636700439760002 c-6.643245526870001,-25.40356755454 -7.139199801460002,-25.40356755454 -54.53674042165,0 c-53.19377833217,28.51013096072 -151.67335919285,33.47415302479 -193.07194691132,9.73199583056 zm224.45665426509,-95.42583174082999 c17.776955434069997,-17.776955434069997 32.32171821282,-45.19975795157 32.32171821282,-60.939561149999996 c0,-26.157238879189997 -4.6704704686500005,-27.870942674880002 -54.32173314949,-19.93129913346 c-75.23577385541,12.0306152431 -103.69569478455,29.972680428319997 -103.69569478455,65.37283609602 c0,39.50394030275 9.64553457286,47.819846570450004 55.465730176070004,47.819846570450004 c22.69076746656,0 50.88307517759,-12.97491801545 70.22997954515,-32.32182238301 z" id="path3713" inkscape:connector-curvature="0" class=""/>
    <path style="fill:#143c5a;stroke-width:1.26409721;fill-opacity:1" d="m68.50712564921992,1877.5403561314406 c-41.225352692499996,-23.642674662780003 -58.383953878730004,-52.85824615018 -58.837823396560005,-100.18203427585 c-0.8927385283000003,-93.07387719101 44.32795763146,-124.62577769973001 211.02255405212,-147.23685497094 c120.12052115241998,-16.29357192847 135.86042852104,-23.77319991085 128.76331347634002,-61.18873624448 c-6.48261509389,-34.175739254439996 -96.35690489905,-41.28212544605 -130.56545776334,-10.32389085014 c-19.355237982760002,17.51632161869 -38.36733935966,20.58788384103 -86.55240661625,13.983389624840003 c-33.96187785437,-4.6549491103400005 -64.50124411629,-11.2160043573 -67.86531623215,-14.58007647316 c-15.973456934599998,-15.973456934599998 42.17371810226,-72.59360115625 95.44437403465,-92.93783092287 c44.9036021014,-17.14891335856 85.31694816285,-21.265198416409998 164.03815240547,-16.70806511448 c177.10557354964,10.252534269989999 203.86908293463,47.65421596835 167.99828634851,234.77554494611002 c-11.99988503705,62.59784640461 -21.817925444550003,135.52427131791 -21.817925444550003,162.05871045509 v48.244548435080006 h-73.65749130671999 c-62.68274510946,0 -74.68773448582,-3.94002909637 -80.57262102949,-26.44370690169 l-6.915233892960002,-26.4436027315 l-42.78675967040999,26.4436027315 c-48.036833076220006,29.68850415 -154.41678531669,35.3595292936 -197.69564496466,10.53900229249 zm224.48686362019,-97.94716701958998 c17.76028820367,-19.16377317354 32.291508857720004,-46.58657569104 32.291508857720004,-60.939561149999996 c0,-23.2028681206 -6.0231203858,-25.13324591149 -54.32173314949,-17.4099638547 c-75.23577385541,12.0306152431 -103.69569478455,29.972680428319997 -103.69569478455,65.37283609602 c0,39.50883630168 9.64501372191,47.819846570450004 55.495939531169995,47.819846570450004 c24.11133634759,0 49.707410413249995,-12.69897118214 70.22997954515,-34.84315766177 z" id="path3715" inkscape:connector-curvature="0" class=""/><path style="fill:#1e3c5a;stroke-width:1.26409721;fill-opacity:0" d="m68.50712564921992,1877.5403561314406 c-41.225352692499996,-23.642674662780003 -58.383953878730004,-52.85824615018 -58.837823396560005,-100.18203427585 c-0.8969053359000003,-93.54743487475 44.248684116869995,-124.63025701789999 215.89396881728,-148.64231917442 c118.07284772758999,-16.51753783697 144.36884129986,-33.12893301513 112.75120940125001,-71.22584656155 c-21.400515493220002,-25.78597632203 -78.54536496189999,-24.93042655156 -116.63175731913,1.7464132353500001 c-21.50510236398,15.06269696343 -47.7089053181,19.38596818881 -89.17332859665,14.71237261446 c-73.36727315738,-8.269550533150001 -79.25830574225999,-14.262774074420001 -53.16481901935,-54.08651686047 c34.34730755737,-52.42062718199 123.58105486422,-78.50244684362 244.60994007344001,-71.4961682046 c177.10557354964,10.252534269989999 203.86908293463,47.65421596835 167.99828634851,234.77554494611002 c-11.99988503705,62.59784640461 -21.817925444550003,135.52427131791 -21.817925444550003,162.05871045509 v48.244548435080006 h-73.65749130671999 c-61.64125154984,0 -74.73950707025,-4.1376399468 -80.29011147421,-25.3633578612 c-6.544908867510001,-25.02782567921 -7.182013749550001,-25.02855487054 -48.14767015838,-0.05208509500000001 c-46.931379019939996,28.61638455452 -157.06208312155002,33.86416621615 -199.53247792493,9.507404900920001 zm222.68753192832,-103.61871301414 c52.1955154014,-62.03095223063 45.96103370009,-82.27965793302 -21.873656496200002,-71.04261119734001 c-77.12937956923,12.776786314070002 -102.05293088824999,28.342833635580003 -102.05293088824999,63.73746828321 c0,39.204242666119995 9.67438971549,47.819846570450004 53.6966078393,47.819846570450004 c24.189255649710002,0 47.411707766030005,-13.396703114760001 70.22997954515,-40.51470365632 z" id="path3717" inkscape:connector-curvature="0" class=""/>
  </g>
</svg>