<svg style="shape-rendering: geometricPrecision; text-rendering: geometricPrecision; fill-rule: evenodd; clip-rule: evenodd;fill: currentColor" width="120" height="45" viewBox="0 0 4534 1906">
  <rect id="backgroundrect" width="100%" height="100%" x="0" y="0" fill="none" stroke="none"/>
  <g id="Calque_x0020_1">
    <path d="M2593,0 c-198,137 -653,630 -410,949 c243,320 878,10 1068,-200 c-129,86 -617,320 -849,69 c-243,-262 57,-637 191,-818 z" id="path3685" />
    <path d="M2569,591 c124,0 167,91 167,134 c0,43 -19,124 -138,124 c-119,0 -172,-81 -172,-138 c0,-38 29,-119 143,-119 z" id="path3687" />
    <g id="_166721600">
      <path d="M49,1571 c10,-42 34,-75 71,-98 c37,-23 94,-34 171,-34 c88,0 147,11 178,33 c31,22 46,54 46,96 c0,28 -8,74 -23,138 c-14,61 -21,103 -21,127 c0,20 4,41 11,62 l-167,0 c-4,-18 -6,-35 -6,-51 c-45,41 -95,61 -150,61 c-56,0 -97,-13 -122,-40 c-25,-26 -37,-57 -37,-92 c0,-40 11,-70 33,-90 c22,-21 49,-35 81,-42 c32,-7 76,-14 132,-20 c50,-5 83,-11 99,-16 c3,-13 5,-23 5,-30 c0,-11 -6,-20 -17,-27 c-11,-7 -26,-10 -45,-10 c-20,0 -36,3 -48,9 c-12,6 -23,20 -32,40 l-159,-17 zm278,124 l0,0 c-79,13 -125,25 -139,35 c-14,10 -21,22 -21,36 c0,14 5,26 15,34 c10,8 22,12 38,12 c22,0 43,-9 64,-26 c21,-18 35,-48 43,-91 z" id="path3689" />
      <polygon points="1091,1449 812,1895 661,1895 575,1449 737,1449 762,1732 764,1732 912,1449 " id="polygon3691" />
      <path d="M1098,1571 c10,-42 34,-75 71,-98 c37,-23 94,-34 171,-34 c88,0 147,11 178,33 c31,22 46,54 46,96 c0,28 -8,74 -23,138 c-14,61 -21,103 -21,127 c0,20 4,41 11,62 l-167,0 c-4,-18 -6,-35 -6,-51 c-45,41 -95,61 -150,61 c-56,0 -97,-13 -122,-40 c-25,-26 -37,-57 -37,-92 c0,-40 11,-70 33,-90 c22,-21 49,-35 81,-42 c32,-7 76,-14 132,-20 c50,-5 83,-11 99,-16 c3,-13 5,-23 5,-30 c0,-11 -6,-20 -17,-27 c-11,-7 -26,-10 -45,-10 c-20,0 -36,3 -48,9 c-12,6 -23,20 -32,40 l-159,-17 zm278,124 l0,0 c-79,13 -125,25 -139,35 c-14,10 -21,22 -21,36 c0,14 5,26 15,34 c10,8 22,12 38,12 c22,0 43,-9 64,-26 c21,-18 35,-48 43,-91 z" id="path3693" />
      <path d="M1850,1518 c47,-53 105,-79 172,-79 c40,0 71,10 91,31 c20,21 30,46 30,76 c0,18 -6,53 -17,106 l-52,243 l-172,0 l44,-207 c11,-51 16,-80 16,-87 c0,-25 -11,-37 -34,-37 c-25,0 -47,12 -66,36 c-19,24 -33,58 -42,102 l-42,193 l-172,0 l96,-446 l160,0 l-15,67 l2,2 z" id="path3695" />
      <path d="M2563,1450 l-26,122 l-90,0 l-33,158 c-2,7 -3,14 -3,21 c0,20 13,30 40,30 c8,0 26,-3 53,-8 l-26,122 c-52,7 -89,11 -114,11 c-48,0 -82,-11 -102,-34 c-20,-23 -30,-48 -30,-75 c0,-9 4,-33 12,-72 l32,-153 l-61,0 l25,-122 l63,0 l15,-70 l191,-95 l-35,165 l89,0 z" id="path3697" />
      <path d="M3082,1781 c-25,44 -58,76 -98,96 c-40,19 -91,29 -151,29 c-88,0 -151,-20 -188,-59 c-37,-40 -56,-88 -56,-146 c0,-40 9,-77 26,-112 c17,-35 41,-65 71,-89 c30,-24 59,-40 88,-48 c29,-8 63,-12 101,-12 c83,0 143,18 179,54 c36,36 54,81 54,133 c0,17 -4,47 -11,90 l-340,0 c5,60 32,90 80,90 c33,0 59,-13 79,-40 l165,16 zm-143,-148 l0,0 c2,-6 3,-15 3,-26 c0,-23 -7,-40 -20,-52 c-14,-12 -30,-17 -50,-17 c-21,0 -40,8 -58,24 c-18,16 -31,39 -40,71 l166,0 z" id="path3699" />
      <path d="M3203,1571 c10,-42 34,-75 71,-98 c37,-23 94,-34 171,-34 c88,0 147,11 178,33 c31,22 46,54 46,96 c0,28 -8,74 -23,138 c-14,61 -21,103 -21,127 c0,20 4,41 11,62 l-167,0 c-4,-18 -6,-35 -6,-51 c-45,41 -95,61 -150,61 c-56,0 -97,-13 -122,-40 c-25,-26 -37,-57 -37,-92 c0,-40 11,-70 33,-90 c22,-21 49,-35 81,-42 c32,-7 76,-14 132,-20 c50,-5 83,-11 99,-16 c3,-13 5,-23 5,-30 c0,-11 -6,-20 -17,-27 c-11,-7 -26,-10 -45,-10 c-20,0 -36,3 -48,9 c-12,6 -23,20 -32,40 l-159,-17 zm278,124 l0,0 c-79,13 -125,25 -139,35 c-14,10 -21,22 -21,36 c0,14 5,26 15,34 c10,8 22,12 38,12 c22,0 43,-9 64,-26 c21,-18 35,-48 43,-91 z" id="path3701" />
      <path d="M4240,1515 c32,-29 62,-49 88,-60 c27,-11 55,-16 85,-16 c40,0 71,11 91,32 c20,21 30,47 30,78 c0,18 -2,36 -5,53 l-63,293 l-172,0 l41,-190 c10,-48 16,-77 17,-87 c1,-9 2,-16 2,-19 c0,-23 -11,-35 -33,-35 c-26,0 -47,11 -63,32 c-17,21 -30,55 -40,101 l-42,198 l-172,0 l40,-187 c11,-50 17,-80 18,-89 c1,-9 2,-16 2,-21 c0,-23 -12,-34 -34,-34 c-17,0 -36,9 -55,27 c-19,18 -33,48 -43,91 l-46,214 l-172,0 l96,-446 l159,0 l-14,64 l2,2 c49,-50 104,-76 165,-76 c28,0 53,7 74,20 c22,13 36,32 45,56 z" id="path3703" />
    </g>
  </g>
</svg>
