<svg xmlns="http://www.w3.org/2000/svg" width="167" height="71" viewBox="0 0 167 71">
    <g fill="none" fill-rule="evenodd">
        <g fill-rule="nonzero">
            <g>
                <path fill="#E61E50" d="M95.16.355C87.956 5.377 71.267 23.333 80.195 35c8.927 11.667 32.058.355 39.007-7.304-4.717 3.145-22.522 11.666-30.993 2.536-8.927-9.587 2.08-23.283 6.95-29.877z" transform="translate(-872 -94) translate(872 94)"/>
                <path fill="#E61E50" d="M94.297 21.964c4.515 0 6.087 3.297 6.087 4.87 0 1.572-.71 4.514-5.072 4.514-4.363 0-6.29-2.942-6.29-5.073.05-1.37 1.065-4.311 5.275-4.311z" transform="translate(-872 -94) translate(872 94)"/>
                <g fill="#192D46">
                    <path d="M2.283 10.601C2.688 9.03 3.55 7.862 4.87 7c1.37-.862 3.449-1.268 6.239-1.268 3.195 0 5.377.406 6.492 1.217 1.116.812 1.674 1.979 1.674 3.5 0 1.015-.304 2.689-.862 5.073-.507 2.232-.76 3.753-.76 4.616 0 .71.151 1.47.405 2.232h-6.087c-.152-.66-.203-1.269-.203-1.877-1.623 1.47-3.45 2.232-5.478 2.232-2.08 0-3.55-.457-4.464-1.471-.913-.964-1.37-2.08-1.37-3.348 0-1.471.406-2.536 1.218-3.297.812-.761 1.775-1.268 2.993-1.522 1.166-.254 2.79-.507 4.819-.71 1.826-.203 3.043-.406 3.601-.558.101-.457.203-.862.203-1.116 0-.406-.203-.71-.609-.964-.406-.253-.964-.355-1.623-.355-.71 0-1.319.102-1.725.355-.456.203-.862.71-1.166 1.471l-5.884-.609zm10.094 4.515c-2.891.456-4.565.913-5.073 1.268-.507.355-.76.812-.76 1.319 0 .507.152.913.557 1.217.356.305.812.457 1.37.457.76 0 1.572-.305 2.333-.964.812-.609 1.32-1.725 1.573-3.297zM40.326 6.138L30.13 22.42h-5.529L21.457 6.138h5.934l.913 10.297h.051l5.428-10.297h6.543zM40.58 10.601C40.986 9.03 41.797 7.862 43.167 7c1.37-.862 3.449-1.268 6.239-1.268 3.195 0 5.377.406 6.493 1.217 1.115.812 1.673 1.979 1.673 3.5 0 1.015-.304 2.689-.862 5.073-.507 2.232-.76 3.753-.76 4.616 0 .71.151 1.47.405 2.232h-6.087c-.152-.66-.203-1.269-.203-1.877-1.623 1.47-3.45 2.232-5.478 2.232-2.08 0-3.55-.457-4.464-1.471-.913-.964-1.37-2.08-1.37-3.348 0-1.471.406-2.536 1.218-3.297.812-.761 1.775-1.268 2.993-1.522 1.166-.254 2.79-.507 4.819-.71 1.826-.203 2.992-.406 3.601-.558.102-.457.203-.862.203-1.116 0-.406-.203-.71-.609-.964-.406-.253-.964-.355-1.623-.355-.71 0-1.319.102-1.725.355-.456.203-.862.71-1.166 1.471l-5.884-.609zm10.094 4.515c-2.891.456-4.565.913-5.073 1.268-.507.355-.76.812-.76 1.319 0 .507.152.913.558 1.217.405.305.811.457 1.37.457.81 0 1.572-.305 2.332-.964.812-.609 1.32-1.725 1.573-3.297zM68.022 8.623c1.724-1.927 3.804-2.891 6.29-2.891 1.47 0 2.587.355 3.297 1.116.71.76 1.116 1.674 1.116 2.79 0 .66-.203 1.927-.61 3.855L76.24 22.37h-6.29l1.623-7.558c.406-1.826.558-2.892.558-3.196 0-.913-.405-1.37-1.217-1.37-.913 0-1.725.457-2.435 1.32-.71.862-1.217 2.13-1.572 3.753l-1.522 7.05h-6.29l3.5-16.282h5.884l-.558 2.435.102.101zM94.043 6.138L93.08 10.6h-3.247l-1.217 5.783c-.102.254-.102.507-.102.76 0 .711.508 1.117 1.472 1.117.304 0 .963-.102 1.927-.304l-.964 4.463c-1.877.254-3.246.406-4.16.406-1.724 0-2.992-.406-3.702-1.268s-1.116-1.775-1.116-2.74c0-.304.152-1.217.457-2.637l1.166-5.58h-2.232l.913-4.463h2.283l.558-2.537 7-3.5-1.268 6.037h3.195zM113.014 18.21c-.913 1.623-2.08 2.79-3.55 3.5-1.471.71-3.297 1.065-5.53 1.065-3.195 0-5.477-.71-6.847-2.18-1.37-1.472-2.029-3.247-2.029-5.327 0-1.47.304-2.84.964-4.109.608-1.268 1.47-2.384 2.587-3.246 1.116-.862 2.13-1.471 3.195-1.775 1.066-.305 2.283-.457 3.703-.457 3.044 0 5.225.66 6.544 1.978 1.319 1.32 1.978 2.942 1.978 4.87 0 .609-.152 1.725-.406 3.246h-12.427c.152 2.182 1.166 3.247 2.942 3.247 1.217 0 2.18-.508 2.891-1.471l5.985.66zm-5.224-5.377c.05-.203.101-.558.101-.963 0-.812-.253-1.471-.76-1.877-.508-.406-1.117-.66-1.827-.66-.76 0-1.47.305-2.13.863-.66.558-1.116 1.42-1.471 2.587l6.087.05zM117.428 10.601c.405-1.572 1.268-2.739 2.586-3.601 1.32-.862 3.45-1.268 6.24-1.268 3.195 0 5.376.406 6.492 1.217 1.116.812 1.674 1.979 1.674 3.5 0 1.015-.253 2.689-.862 5.073-.507 2.232-.76 3.753-.76 4.616 0 .71.151 1.47.405 2.232h-6.087c-.152-.66-.203-1.269-.203-1.877-1.623 1.47-3.45 2.232-5.478 2.232-2.08 0-3.55-.457-4.464-1.471-.913-.964-1.37-2.08-1.37-3.348 0-1.471.406-2.536 1.218-3.297.811-.761 1.775-1.268 2.993-1.522 1.166-.254 2.79-.507 4.818-.71 1.827-.203 3.044-.406 3.602-.558.101-.457.203-.862.203-1.116 0-.406-.203-.71-.609-.964-.406-.253-.964-.355-1.623-.355-.71 0-1.319.102-1.725.355-.406.254-.811.71-1.166 1.471l-5.884-.609zm10.144 4.515c-2.89.456-4.565.913-5.072 1.268-.507.355-.76.812-.76 1.319 0 .507.202.913.557 1.217.355.305.812.457 1.37.457.76 0 1.572-.305 2.333-.964.812-.609 1.319-1.725 1.572-3.297zM155.319 8.522c1.167-1.065 2.232-1.776 3.246-2.181.964-.406 2.03-.61 3.094-.61 1.471 0 2.587.407 3.298 1.168.76.76 1.115 1.724 1.115 2.84 0 .66-.05 1.319-.202 1.928l-2.334 10.703h-6.29l1.522-6.95c.406-1.775.609-2.84.609-3.145 0-.304.05-.558.05-.71 0-.862-.405-1.268-1.217-1.268-.913 0-1.724.406-2.333 1.167-.609.76-1.065 2.029-1.471 3.703l-1.573 7.253h-6.29l1.471-6.848c.406-1.826.61-2.942.66-3.246.05-.304.05-.609.05-.76 0-.812-.405-1.218-1.267-1.218-.61 0-1.32.304-2.03.964-.71.659-1.217 1.775-1.572 3.297l-1.674 7.811h-6.29l3.5-16.282h5.834l-.508 2.333.051.05c1.775-1.825 3.804-2.738 6.036-2.738 1.015 0 1.928.253 2.74.71.913.456 1.47 1.116 1.775 2.029z" transform="translate(-872 -94) translate(872 94) translate(0 47.174)"/>
                </g>
            </g>
        </g>
    </g>
</svg>
